<svg id="Layer_1" data-name="Layer 1" xmlns="http://www.w3.org/2000/svg" viewBox="0 0 478 478"><defs><style>.cls-1{fill:#fef7f9;}.cls-2{fill:#010101;}</style></defs><rect class="cls-1" width="478" height="478"/><path class="cls-2" d="M239.62,346.45H203.74c-20.08,0-33.54-11.32-36.83-31A96.78,96.78,0,0,0,141.32,264c-18.6-19.75-31.57-42.53-36.63-69.26-9-47.88,3.85-89.49,37.58-124.4C163,49,188.51,35.68,218,31.58c49.24-6.83,91.11,8.51,124.93,44.9a128.59,128.59,0,0,1,33.65,70.65c5.72,40.17-4.49,76.19-29.9,107.81-6.46,8-14.11,15.07-19.68,23.87-7.72,12.22-12.07,25.55-14.7,39.69a34.45,34.45,0,0,1-33.85,27.92C265.5,346.52,252.56,346.44,239.62,346.45Zm.58-27q18.11,0,36.2,0c6,0,7.89-1.59,9-7.51.57-3.09,1.12-6.19,1.87-9.24,5.34-22,16.24-40.92,31.55-57.54,25.35-27.53,35.42-59.91,29.38-96.95C340,98,294.4,58.56,243.25,57.5c-27.84-.57-52.57,8.23-73.77,26.2-23.26,19.71-36.66,45-39.07,75.41-2.59,32.62,8.26,61,30.26,84.86,18,19.57,29.47,42.15,34.06,68.3,1,5.45,3.1,7.18,8.63,7.19Q221.78,319.48,240.2,319.46Z" transform="translate(-1)"/><path class="cls-2" d="M239.9,368.77c14.78,0,29.57.19,44.35-.07,9.07-.16,16.83,5.93,16.1,16.17-.46,6.49.79,13.08-.69,19.5-2.21,9.6-8.41,15.45-17.93,17.64-1.79.41-2.57,1.07-3,2.73-1,4-2.16,7.95-3.28,11.91-2.38,8.37-8.49,13.2-17.14,13.28q-18.26.15-36.52,0c-8.89-.07-14.72-4.63-17.14-13.12-1.2-4.17-2.43-8.32-3.5-12.52a2.63,2.63,0,0,0-2.37-2.19c-12-2.72-19-11.48-19.16-23.7-.05-4.78,0-9.57,0-14.35.06-9.42,5.79-15.21,15.28-15.26C209.89,368.72,224.89,368.77,239.9,368.77Z" transform="translate(-1)"/><rect class="cls-2" x="215.67" y="166.31" width="46.67" height="174.39" rx="19"/><circle class="cls-2" cx="239" cy="123.33" r="23.33"/></svg>